<svg width="333" height="367" viewBox="0 0 333 367" fill="none" xmlns="http://www.w3.org/2000/svg">
<path d="M330.5 183.5C330.5 283.698 256.852 364.5 166.5 364.5C76.1484 364.5 2.5 283.698 2.5 183.5C2.5 83.3022 76.1484 2.5 166.5 2.5C256.852 2.5 330.5 83.3022 330.5 183.5Z" fill="#F3EDED" stroke="black" stroke-width="5"/>
<g filter="url(#filter0_d_10_86)">
<path d="M32 240.753C54 414 97.1768 157.688 164.518 59.418C231.859 -38.8525 364.097 114.102 204.4 151.648C394.222 144.957 330 260 204.4 270.606" stroke="black" stroke-width="9" stroke-linecap="round"/>
</g>
<path d="M113 173L207 272.429" stroke="black" stroke-width="9"/>
<path d="M167 53L207.999 270" stroke="black" stroke-width="9"/>
<defs>
<filter id="filter0_d_10_86" x="23.4995" y="22.4998" width="308.885" height="289.39" filterUnits="userSpaceOnUse" color-interpolation-filters="sRGB">
<feFlood flood-opacity="0" result="BackgroundImageFix"/>
<feColorMatrix in="SourceAlpha" type="matrix" values="0 0 0 0 0 0 0 0 0 0 0 0 0 0 0 0 0 0 127 0" result="hardAlpha"/>
<feOffset dy="4"/>
<feGaussianBlur stdDeviation="2"/>
<feComposite in2="hardAlpha" operator="out"/>
<feColorMatrix type="matrix" values="0 0 0 0 0 0 0 0 0 0 0 0 0 0 0 0 0 0 0.25 0"/>
<feBlend mode="normal" in2="BackgroundImageFix" result="effect1_dropShadow_10_86"/>
<feBlend mode="normal" in="SourceGraphic" in2="effect1_dropShadow_10_86" result="shape"/>
</filter>
</defs>
</svg>
